<?xml version="1.0" standalone="no"?>
<!DOCTYPE svg PUBLIC "-//W3C//DTD SVG 20010904//EN"
 "http://www.w3.org/TR/2001/REC-SVG-20010904/DTD/svg10.dtd">
<svg version="1.0" xmlns="http://www.w3.org/2000/svg"
 width="500.000000pt" height="500.000000pt" viewBox="0 0 500.000000 500.000000"
 preserveAspectRatio="xMidYMid meet">

<g transform="translate(0.000000,500.000000) scale(0.100000,-0.100000)"
fill="#20242a" stroke="none">
<path d="M1904 4966 c-19 -19 -34 -42 -35 -52 0 -11 -3 -32 -5 -49 -3 -16 -7
-409 -10 -872 l-6 -843 -831 0 c-494 0 -856 -4 -892 -10 -45 -7 -67 -17 -90
-40 l-30 -30 0 -575 0 -575 30 -30 c23 -23 45 -33 90 -40 36 -6 399 -10 893
-10 l832 0 2 -847 c0 -467 2 -852 3 -858 2 -5 3 -23 4 -38 1 -19 13 -41 35
-63 l34 -34 572 0 572 0 34 34 c19 19 34 42 35 53 0 10 3 32 5 48 3 17 7 407
10 868 l6 837 826 0 c491 0 851 4 887 10 45 7 67 17 90 40 l30 30 0 575 0 575
-30 30 c-23 23 -45 33 -90 40 -36 6 -397 10 -887 10 l-828 0 -2 853 c0 468 -2
857 -3 862 -2 6 -3 23 -4 39 -1 18 -13 40 -35 62 l-34 34 -572 0 -572 0 -34
-34z"/>
</g>
</svg>
