<?xml version="1.0" standalone="no"?>
<!DOCTYPE svg PUBLIC "-//W3C//DTD SVG 20010904//EN"
 "http://www.w3.org/TR/2001/REC-SVG-20010904/DTD/svg10.dtd">
<svg version="1.0" xmlns="http://www.w3.org/2000/svg"
 width="500.000000pt" height="500.000000pt" viewBox="0 0 500.000000 500.000000"
 preserveAspectRatio="xMidYMid meet">

<g transform="translate(0.000000,500.000000) scale(0.100000,-0.100000)"
fill="#20242a" stroke="none">
<path d="M1825 4941 c-307 -33 -589 -129 -839 -285 -246 -155 -477 -391 -630
-643 -116 -193 -215 -465 -245 -673 -29 -205 -32 -301 -16 -465 9 -88 20 -178
24 -200 5 -22 14 -63 19 -90 31 -150 128 -383 226 -544 350 -575 964 -921
1636 -921 390 0 719 99 1068 321 21 13 43 -7 705 -668 661 -661 684 -682 736
-697 100 -29 180 -16 256 42 68 52 107 125 112 210 7 134 46 88 -706 837
l-674 672 41 52 c129 163 261 434 317 652 45 174 58 281 58 489 1 226 -15 346
-73 547 -95 329 -309 663 -573 894 -218 190 -512 347 -775 414 -199 50 -489
75 -667 56z m405 -432 c226 -31 487 -143 686 -293 76 -57 210 -193 274 -276
224 -294 335 -676 300 -1035 -34 -361 -177 -670 -425 -920 -286 -289 -662
-446 -1068 -445 -651 2 -1229 429 -1422 1050 -53 171 -60 223 -60 440 0 178 3
218 23 305 49 214 132 403 249 568 117 165 322 345 508 447 274 149 603 205
935 159z"/>
</g>
</svg>
